<?xml version="1.0" encoding="UTF-8"?><svg id="Capa_2" xmlns="http://www.w3.org/2000/svg" viewBox="0 0 98.48 46.13"><g id="Capa_1-2"><g><g><path d="M54.43,13.66c-.57-1.32-1.34-2.48-2.32-3.47-.98-.99-2.13-1.77-3.44-2.33-1.31-.57-2.71-.85-4.19-.85h-.03c-1.48,0-2.88,.28-4.19,.85-1.31,.57-2.46,1.34-3.44,2.33-.98,.99-1.76,2.14-2.32,3.47-.57,1.32-.85,2.73-.85,4.23v13.86h6.18v-13.86c0-.63,.12-1.24,.36-1.8,.24-.57,.57-1.06,1-1.48,.42-.42,.91-.76,1.47-1,.22-.09,.44-.17,.67-.23,.36-.09,.74-.13,1.13-.14,.39,0,.77,.05,1.13,.14,.23,.06,.45,.13,.67,.23,.56,.24,1.05,.57,1.47,1,.42,.42,.75,.92,1,1.48,.24,.57,.36,1.17,.36,1.8v13.86h6.18v-13.86c0-1.5-.28-2.9-.85-4.23" fill="#fff"/><path d="M56.78,7.53V.01h6.16V7.53h9.38v6.16h-9.38v7.2c0,.65,.12,1.26,.36,1.82,.24,.57,.57,1.06,1,1.48,.42,.42,.92,.76,1.5,1.01,.57,.25,1.19,.37,1.84,.37h4.69v6.16h-4.69c-1.5,0-2.9-.28-4.21-.85-1.31-.57-2.47-1.34-3.46-2.33-.99-.99-1.77-2.14-2.33-3.45-.57-1.31-.85-2.72-.85-4.21V7.53Z" fill="#fff"/><path d="M98.48,19.4c0,1.81-.32,3.5-.97,5.06-.65,1.56-1.53,2.92-2.65,4.06-1.12,1.14-2.43,2.04-3.93,2.7-1.5,.66-3.11,.99-4.84,.99s-3.31-.33-4.81-.99c-1.5-.66-2.82-1.56-3.94-2.7-1.13-1.14-2.01-2.49-2.66-4.06-.65-1.56-.97-3.25-.97-5.06s.32-3.55,.97-5.12c.65-1.57,1.54-2.93,2.66-4.07,1.12-1.14,2.44-2.03,3.94-2.68,1.5-.65,3.11-.97,4.81-.97s3.33,.31,4.84,.92c1.5,.61,2.81,1.48,3.93,2.6s2,2.48,2.65,4.06c.65,1.58,.97,3.33,.97,5.27m-6.23,0c0-1-.16-1.9-.49-2.71-.33-.81-.77-1.5-1.33-2.08-.56-.58-1.21-1.03-1.96-1.34-.75-.31-1.54-.46-2.39-.46s-1.64,.16-2.39,.46c-.75,.31-1.4,.76-1.95,1.34-.55,.58-.99,1.28-1.3,2.08-.32,.81-.48,1.71-.48,2.71,0,.94,.16,1.81,.48,2.6,.32,.8,.75,1.5,1.3,2.09,.55,.59,1.2,1.05,1.95,1.39,.75,.34,1.54,.51,2.39,.51s1.64-.16,2.39-.48c.75-.32,1.4-.76,1.96-1.34s1-1.27,1.33-2.08c.32-.82,.49-1.71,.49-2.7" fill="#fff"/><polygon points="13.05 0 0 31.75 7.28 31.75 16.13 10.26 24.98 31.75 32.25 31.75 19.2 0 13.05 0" fill="#fff"/></g><g><path d="M.88,45.38v-7.15h1.44l2.03,6.05,2.03-6.05h1.44v7.15h-.8v-6.31h-.14l-2.08,6.05h-.89l-2.08-6.05h-.15v6.31H.88Z" fill="#fff"/><path d="M14.93,41.86c0,1.28-.2,2.2-.61,2.77-.41,.57-1.15,.86-2.22,.86s-1.81-.29-2.22-.88-.61-1.51-.61-2.77,.21-2.19,.62-2.8,1.15-.92,2.2-.92,1.79,.3,2.21,.91c.42,.61,.63,1.55,.63,2.82Zm-4.84-.02c0,1.05,.14,1.8,.41,2.26,.28,.46,.81,.69,1.6,.69s1.32-.22,1.59-.67c.27-.45,.41-1.2,.41-2.25s-.14-1.82-.42-2.31-.81-.72-1.59-.72-1.3,.24-1.58,.72c-.28,.48-.42,1.24-.42,2.29Z" fill="#fff"/><path d="M16.39,45.38v-7.15h1.49l2.74,6.45h.22v-6.45h.79v7.15h-1.46l-2.78-6.45h-.2v6.45h-.8Z" fill="#fff"/><path d="M22.63,38.94v-.71h5.17v.71h-2.18v6.44h-.79v-6.44h-2.2Z" fill="#fff"/><path d="M27.7,45.38l1.96-7.15h1.74l1.96,7.15h-.79l-.52-1.84h-3.06l-.52,1.84h-.79Zm2.56-6.47l-1.09,3.92h2.71l-1.09-3.92h-.54Z" fill="#fff"/><path d="M33.76,46.13v-.71c.5,0,.81-.06,.96-.18,.14-.12,.21-.44,.21-.95v-6.06h.79v6.17c.01,.58-.09,1-.28,1.27-.16,.23-.47,.37-.94,.42-.19,.02-.43,.03-.73,.03Z" fill="#fff"/><path d="M37.44,45.38v-7.15h4.35v.7h-3.56v2.47h2.94v.69h-2.94v2.58h3.56v.7h-4.35Z" fill="#fff"/><path d="M45.43,45.38v-7.15h.8v7.15h-.8Z" fill="#fff"/><path d="M47.97,45.38v-7.15h1.49l2.74,6.45h.22v-6.45h.79v7.15h-1.46l-2.78-6.45h-.2v6.45h-.8Z" fill="#fff"/><path d="M57.52,45.38h-2.55v-7.15h2.55c1.16,0,1.94,.46,2.32,1.38,.22,.53,.33,1.23,.33,2.09,0,1.8-.45,2.93-1.34,3.4-.36,.19-.79,.28-1.3,.28Zm1.83-3.68c0-1.37-.31-2.23-.92-2.56-.25-.14-.55-.21-.91-.21h-1.76v5.75h1.76c1.22,0,1.83-.99,1.83-2.98Z" fill="#fff"/><path d="M62.37,43.23c0,1.03,.56,1.55,1.68,1.55,.58,0,1.01-.12,1.31-.37s.44-.64,.44-1.18v-5h.79v4.98c0,.8-.21,1.38-.64,1.74-.42,.36-1.05,.54-1.88,.54s-1.45-.18-1.87-.54c-.42-.36-.63-.94-.63-1.74v-4.98h.8v5Z" fill="#fff"/><path d="M70.26,38.82c-1.03,0-1.55,.39-1.55,1.17,0,.43,.12,.73,.36,.89,.24,.16,.72,.32,1.45,.49,.73,.16,1.24,.37,1.55,.63,.3,.26,.46,.69,.46,1.28,0,1.47-.76,2.2-2.28,2.2-.5,0-1.13-.06-1.89-.18l-.37-.05,.08-.66c.94,.12,1.65,.19,2.14,.19,1.02,0,1.53-.48,1.53-1.44,0-.39-.11-.66-.34-.83-.22-.17-.64-.31-1.26-.43-.81-.17-1.38-.39-1.72-.67-.34-.27-.51-.73-.51-1.37,0-1.28,.77-1.92,2.31-1.92,.5,0,1.11,.05,1.81,.15l.35,.05-.07,.67c-.96-.12-1.64-.18-2.04-.18Z" fill="#fff"/><path d="M73.15,38.94v-.71h5.17v.71h-2.18v6.44h-.79v-6.44h-2.2Z" fill="#fff"/><path d="M80.13,42.64v2.74h-.8v-7.15h2.65c.76,0,1.33,.18,1.71,.53,.38,.35,.57,.9,.57,1.64,0,1.1-.44,1.8-1.31,2.08l1.38,2.91h-.88l-1.29-2.74h-2.03Zm1.86-.7c.97,0,1.46-.5,1.46-1.5s-.49-1.5-1.47-1.5h-1.85v3.01h1.86Z" fill="#fff"/><path d="M85.7,45.38v-7.15h.8v7.15h-.8Z" fill="#fff"/><path d="M87.61,45.38l1.96-7.15h1.74l1.96,7.15h-.79l-.52-1.84h-3.06l-.52,1.84h-.79Zm2.56-6.47l-1.09,3.92h2.71l-1.09-3.92h-.54Z" fill="#fff"/><path d="M98.34,45.38h-3.94v-7.15h.8v6.44h3.14v.71Z" fill="#fff"/></g></g></g></svg>