<svg xmlns="http://www.w3.org/2000/svg" viewBox="0 0 33.05 33.05"><g id="Capa_2" data-name="Capa 2"><g id="Capa_1-2" data-name="Capa 1"><path d="M0,33.05c.27-.81.53-1.59.8-2.36l2.07-6.12a.55.55,0,0,0-.06-.35A15.22,15.22,0,0,1,1,19.4,15.72,15.72,0,0,1,3.56,6.84,15.8,15.8,0,0,1,11.92.76a16,16,0,0,1,7.7-.51,16,16,0,0,1,8.63,4.43,15.63,15.63,0,0,1,4.54,8.62,15.69,15.69,0,0,1-2.08,11.13A16.22,16.22,0,0,1,19.38,32a16.5,16.5,0,0,1-4.27.1A16.25,16.25,0,0,1,10,30.71c-.28-.12-.54-.28-.83-.4a.61.61,0,0,0-.4,0L.29,33Zm4.08-4L4.39,29c1.57-.5,3.13-1,4.69-1.5a.48.48,0,0,1,.45.06c.36.22.72.42,1.08.61A13.61,13.61,0,0,0,25,26.93a13.4,13.4,0,0,0,3.89-4.51A13.12,13.12,0,0,0,30.28,14a13.21,13.21,0,0,0-4.8-8.29,13.22,13.22,0,0,0-7.32-3A13.73,13.73,0,0,0,5.49,8.59a13.24,13.24,0,0,0-2.1,5.17,13.47,13.47,0,0,0,0,4.61,13.28,13.28,0,0,0,2.25,5.45.47.47,0,0,1,.07.47c-.29.82-.56,1.64-.84,2.46S4.35,28.25,4.08,29.05Z" fill="#fff"/><path d="M11.75,8.78h.19c.6-.1.91.22,1.12.74.36.91.73,1.83,1.14,2.72a1.1,1.1,0,0,1-.15,1.23c-.25.34-.53.66-.8,1s-.31.48-.1.82a10.78,10.78,0,0,0,4.44,4.21c.33.16.67.31,1,.45a.61.61,0,0,0,.86-.22c.37-.44.73-.89,1.09-1.34s.54-.51,1.07-.27l3.08,1.46a.6.6,0,0,1,.37.62c-.08,1.61-.52,2.39-2.28,3.17a3.84,3.84,0,0,1-2.65.18,21.89,21.89,0,0,1-3.7-1.37,12.75,12.75,0,0,1-3.5-2.61A18.12,18.12,0,0,1,9.46,14.8,5,5,0,0,1,9,11.45,4.3,4.3,0,0,1,10.56,9,1.54,1.54,0,0,1,11.75,8.78Z" fill="#fff"/></g></g></svg>